{"title":"Eminem - Live - Beautifu 720p HDTV x264-GreatMagician","uid":4993287,"size":82974691,"categoryP":"video","categoryS":"music_videos","magnet":"?xt=urn:btih:dece8ecd525053aa42da172e52bc341e1bb6cedb&amp;dn=Eminem+-+Live+-+Beautifu+720p+HDTV+x264-GreatMagician&amp;tr=udp%3A%2F%2Ftracker.openbittorrent.com%3A80&amp;tr=udp%3A%2F%2Fopen.demonii.com%3A1337&amp;tr=udp%3A%2F%2Ftracker.coppersurfer.tk%3A6969&amp;tr=udp%3A%2F%2Fexodus.desync.com%3A6969","seeders":0,"leechers":0,"uploader":"GreatMagician","files":7,"time":1247155557,"description":"Eminem - Live -Beautifu 720p BluRay x264-GreatMagician.mp4\n &lt;a href=&quot;\nhttp://img16.imageshack.us/img16/2632/eminemlivebeautifu1.jpg&quot; rel=&quot;nofollow&quot; target=&quot;_NEW&quot;&gt;\nhttp://img16.imageshack.us/img16/2632/eminemlivebeautifu1.jpg&lt;/a&gt; &lt;a href=&quot;\nhttp://img134.imageshack.us/img134/818/eminemlivebeautifu2.jpg&quot; rel=&quot;nofollow&quot; target=&quot;_NEW&quot;&gt;\nhttp://img134.imageshack.us/img134/818/eminemlivebeautifu2.jpg&lt;/a&gt; &lt;a href=&quot;\nhttp://img44.imageshack.us/img44/535/eminemlivebeautifu3.jpg&quot; rel=&quot;nofollow&quot; target=&quot;_NEW&quot;&gt;\nhttp://img44.imageshack.us/img44/535/eminemlivebeautifu3.jpg&lt;/a&gt;\n\n\nGeneral\nComplete name                 Eminem - Live -Beautifu 720p BluRay x264-GreatMagician.mp4\nFormat                           : MPEG-4\nFormat profile                   : Base Media / Version 2\nCodec ID                         : mp42\nFile size                        : 78.9 MiB\nDuration                         : 5mn 10s\nOverall bit rate                 : 2 129 Kbps\n\n\nVideo\nID                               : 2\nFormat                           : AVC\nFormat/Info                      : Advanced Video Codec\nFormat profile                   : &lt;a class=&quot;__cf_email__&quot; href=&quot;/cdn-cgi/l/email-protection&quot; data-cfemail=&quot;5911303e3119156a7768&quot;&gt;[email&amp;#160;protected]&lt;/a&gt;&lt;script cf-hash='f9e31' type=&quot;text/javascript&quot;&gt;\n/* &lt;![CDATA[ */!function(){try{var t=&quot;currentScript&quot;in document?document.currentScript:function(){for(var t=document.getElementsByTagName(&quot;script&quot;),e=t.length;e--;)if(t[e].getAttribute(&quot;cf-hash&quot;))return t[e]}();if(t&amp;&amp;t.previousSibling){var e,r,n,i,c=t.previousSibling,a=c.getAttribute(&quot;data-cfemail&quot;);if(a){for(e=&quot;&quot;,r=parseInt(a.substr(0,2),16),n=2;a.length-n;n+=2)i=parseInt(a.substr(n,2),16)^r,e+=String.fromCharCode(i);e=document.createTextNode(e),c.parentNode.replaceChild(e,c)}}}catch(u){}}();/* ]]&gt; */&lt;/script&gt;\nFormat settings, CABAC           : Yes\nFormat settings, ReFrames        : 3 frames\nCodec ID                         : avc1\nCodec ID/Info                    : Advanced Video Coding\nDuration                         : 5mn 10s\nBit rate mode                    : Variable\nBit rate                         : 2 001 Kbps\nMaximum bit rate                 : 3 734 Kbps\nWidth                            : 1 280 pixels\nHeight                           : 720 pixels\nDisplay aspect ratio             : 16/9\nFrame rate mode                  : Constant\nFrame rate                       : 30.000 fps\nResolution                       : 24 bits\nColorimetry                      : 4:2:0\nScan type                        : Progressive\nBits/(Pixel*Frame)               : 0.072\nStream size                      : 74.1 MiB (94%)\n\n\n\nAudio\nID                               : 1\nFormat                           : AAC\nFormat/Info                      : Advanced Audio Codec\nFormat version                   : Version 4\nFormat profile                   : LC\nFormat settings, SBR             : No\nCodec ID                         : 40\nDuration                         : 5mn 10s\nBit rate mode                    : Variable\nBit rate                         : 125 Kbps\nMaximum bit rate                 : 219 Kbps\nChannel(s)                       : 2 channels\nChannel positions                : L R\nSampling rate                    : 44.1 KHz\nResolution                       : 16 bits\nStream size                      : 4.64 MiB (6%)\n\n\n","torrent":{"xt":"urn:btih:dece8ecd525053aa42da172e52bc341e1bb6cedb","amp;dn":"Eminem+-+Live+-+Beautifu+720p+HDTV+x264-GreatMagician","amp;tr":["udp%3A%2F%2Ftracker.openbittorrent.com%3A80","udp%3A%2F%2Fopen.demonii.com%3A1337","udp%3A%2F%2Ftracker.coppersurfer.tk%3A6969","udp%3A%2F%2Fexodus.desync.com%3A6969"],"infoHash":"dece8ecd525053aa42da172e52bc341e1bb6cedb","infoHashBuffer":{"type":"Buffer","data":[222,206,142,205,82,80,83,170,66,218,23,46,82,188,52,30,27,182,206,219]},"announce":[],"urlList":[]}}